<svg xmlns="http://www.w3.org/2000/svg" xmlns:xlink="http://www.w3.org/1999/xlink" width="56" height="56" version="1.1" viewBox="0 0 56 56"><title>Artboard</title><desc>Created with Sketch.</desc><g id="Page-1" fill="none" fill-rule="evenodd" stroke="none" stroke-width="1"><g id="Artboard"><g id="Group-14" transform="translate(4.000000, 4.000000)"><g id="btn-adherencia"><circle id="Oval-3" cx="24" cy="24" r="24" fill="#E6B407"/><path id="-copy-2" fill="#FFF" d="M24.1000082,30.0000012 C24.2250084,30.0000012 24.3500085,29.9531261 24.4437587,29.859376 L29.310952,25.1718704 C29.3812645,25.1015579 31.1000166,23.5312435 31.1000166,21.6562412 C31.1000166,19.367176 29.7015774,17.9999869 27.3656371,17.9999869 C25.998448,17.9999869 24.7171965,19.0781132 24.1000082,19.6874889 C23.48282,19.0781132 22.2015685,17.9999869 20.8343794,17.9999869 C18.4984391,17.9999869 17.0999999,19.367176 17.0999999,21.6562412 C17.0999999,23.5312435 18.818752,25.1015579 18.881252,25.1562454 L23.7562578,29.859376 C23.850008,29.9531261 23.9750081,30.0000012 24.1000082,30.0000012 L24.1000082,30.0000012 Z"/></g><path id="Line-Copy-8" stroke="#FFF" stroke-linecap="round" stroke-linejoin="round" stroke-width="2" d="M36.6477385,23.1864593 L41.6509312,22.5721445"/><path id="Line" stroke="#FFF" stroke-linecap="round" stroke-width="2" d="M18.8555158,33.9817842 L16.4217214,38.3960752"/><path id="Line" stroke="#FFF" stroke-linecap="round" stroke-width="2" d="M26.0779828,36.7595026 L26.6922976,41.7626953"/><path id="Line" stroke="#FFF" stroke-linecap="round" stroke-width="2" d="M16.3036086,14.0572699 L14.0352639,11.0328104"/><path id="Line" stroke="#FFF" stroke-linecap="round" stroke-width="2" d="M12.2936285,27.9993773 L8.78834098,29.4156053"/><path id="Line" stroke="#FFF" stroke-linecap="round" stroke-width="2" d="M32.9910564,31.4102346 L36.1617129,33.469283"/><path id="Line" stroke="#FFF" stroke-linecap="round" stroke-linejoin="round" stroke-width="2" d="M32.6860975,14.0572699 L36.2504572,10.4929102"/><path id="Line" stroke="#FFF" stroke-linecap="round" stroke-width="2" d="M24.8177913,11.5181004 L25.4321062,6.5149077"/><path id="Line" stroke="#FFF" stroke-linecap="round" stroke-width="2" d="M12.4371542,21.0105502 L7.56814835,19.705904"/></g></g></g></svg>