<svg xmlns="http://www.w3.org/2000/svg" xmlns:xlink="http://www.w3.org/1999/xlink" width="1618" height="68" version="1.1" viewBox="0 0 1618 68"><title>Group 6 Copy</title><desc>Created with Sketch.</desc><defs><rect id="path-1" width="1618" height="72" x="0" y="0"/></defs><g id="Page-1" fill="none" fill-rule="evenodd" stroke="none" stroke-width="1"><g id="Group-6-Copy" transform="translate(0.000000, -4.000000)"><mask id="mask-2" fill="#fff"><use xlink:href="#path-1"/></mask><g mask="url(#mask-2)"><g transform="translate(0.000000, 4.000000)"><polygon id="Rectangle-5-Copy" fill="#9FB630" points="0 .065 195.795 9.697 550.733 .065 993.018 16.784 1012.243 16.318 1290.162 11.272 1527.956 18.13 1618 11.272 1618 89 1393.786 80.246 1118.11 89 649.888 75.058 226.373 89 0 67.971"/><polygon id="Rectangle-5" fill="#F0992E" points="0 38 195.795 50.231 550.733 38 993.018 59.231 1012.243 58.639 1290.162 52.231 1527.956 60.94 1618 52.231 1618 150.935 1393.786 139.819 1118.11 150.935 649.888 133.231 226.373 150.935 0 124.231"/></g></g></g></g></svg>