<svg xmlns="http://www.w3.org/2000/svg" xmlns:svg="http://www.w3.org/2000/svg" id="Camada_1" width="81" height="81" x="0" y="0" version="1.1" viewBox="0 0 81 81" xml:space="preserve"><metadata id="metadata11"/><style id="style3" type="text/css">.st0{fill:#582981}</style><path id="path5" fill="#d8b212" fill-opacity="1" stroke="none" stroke-opacity="1" d="m 57.5,2.9500002 c -6.7,0 -13,3 -17.1,8.0999998 C 36.2,5.9500002 30,2.9500002 23.3,2.9500002 11.1,2.9500002 1.0999998,12.850001 1.0999998,25.15 c 0,9.6 5.7000001,20.7 17.0000002,32.9 8.7,9.4 18.1,16.8 20.8,18.8 l 1.6,1.2 1.6,-1.2 c 2.7,-2 12.1,-9.3 20.8,-18.8 11.3,-12.3 17,-23.3 17,-32.9 C 79.6,12.950001 69.7,2.9500002 57.5,2.9500002 l 0,0 z M 58.8,54.55 C 51.7,62.35 44,68.55 40.3,71.45 36.6,68.55 28.9,62.25 21.8,54.55 11.6,43.45 6.1999999,33.25 6.1999999,25.15 6.1999999,15.750001 13.8,8.1500007 23.2,8.1500007 c 6.2,0 11.9,3.4000003 14.9,8.8000003 L 40.4,21.05 42.7,16.950001 c 3,-5.4 8.7,-8.8000003 14.9,-8.8000003 9.4,0 17,7.6000003 17,16.9999993 -0.1,8.1 -5.5,18.3 -15.8,29.4 l 0,0 z m 0,0" class="st0"/></svg>