<svg xmlns="http://www.w3.org/2000/svg" xmlns:svg="http://www.w3.org/2000/svg" id="Camada_1" width="71" height="71" x="0" y="0" version="1.1" viewBox="0 0 71 71" xml:space="preserve"><metadata id="metadata11"/><style id="style3" type="text/css">.st0{fill:#d6b012}</style><path id="path5" fill="#d6b012" d="m 50.5,2.5500003 c -5.9,0 -11.4,2.7 -15,7.0999995 C 31.8,5.1500003 26.3,2.5500003 20.5,2.5500003 9.8000003,2.5500003 1.0000002,11.250001 1.0000002,22.05 c 0,8.4 5.0000001,18.1 14.8999998,28.9 7.6,8.3 15.9,14.7 18.2,16.5 l 1.4,1 1.4,-1 c 2.4,-1.8 10.6,-8.2 18.2,-16.5 C 65,40.15 70,30.45 70,22.05 70,11.25 61.2,2.5500003 50.5,2.5500003 l 0,0 z" class="st0"/></svg>