<svg xmlns="http://www.w3.org/2000/svg" xmlns:svg="http://www.w3.org/2000/svg" id="Camada_1" width="28" height="28" x="0" y="0" version="1.1" viewBox="0 0 28 28" xml:space="preserve"><metadata id="metadata13"/><style id="style3" type="text/css">.st0,.st1{fill:none;stroke:#582983;stroke-width:2;stroke-miterlimit:10}.st1{fill:#582983}</style><g id="g4141" transform="translate(-28.599999,15.050002)"><path id="path5" fill="none" stroke="#fff" stroke-miterlimit="10" stroke-opacity="1" stroke-width="2" d="m 52.3,11.399998 -19.4,0 c -1.5,0 -2.8,-1.2 -2.8,-2.7999997 l 0,-19.3000003 c 0,-1.5 1.2,-2.8 2.8,-2.8 l 19.4,0 c 1.5,0 2.8,1.2 2.8,2.8 l 0,19.4000003 C 55,10.199998 53.8,11.399998 52.3,11.399998 Z" class="st0"/><path id="path7" fill="#fff" fill-opacity="1" stroke="#fff" stroke-miterlimit="10" stroke-opacity="1" stroke-width="2" d="m 46.8,5.9999983 -8.4,0 c -1.5,0 -2.8,-1.2 -2.8,-2.8 l 0,-8.4 c 0,-1.5 1.2,-2.8 2.8,-2.8 l 8.4,0 c 1.5,0 2.8,1.2 2.8,2.8 l 0,8.4 c 0,1.6 -1.3,2.8 -2.8,2.8 z" class="st1"/></g></svg>