<svg xmlns="http://www.w3.org/2000/svg" xmlns:svg="http://www.w3.org/2000/svg" id="Camada_1" width="69" height="69" x="0" y="0" version="1.1" viewBox="0 0 69 69" xml:space="preserve"><metadata id="metadata49"/><style id="style3" type="text/css">.st0{fill:#582983}</style><g id="g5" fill="#fff" fill-opacity="1" transform="translate(-39.4,-20.6)"><g id="g7" fill="#fff" fill-opacity="1"><path id="path9" fill="#fff" fill-opacity="1" d="m 64.3,50.6 c 0,1.2 -1,2.2 -2.2,2.2 -1.2,0 -2.2,-1 -2.2,-2.2 0,-1.2 1,-2.2 2.2,-2.2 1.2,-0.1 2.2,0.9 2.2,2.2 l 0,0 z m 0,0" class="st0"/><path id="path11" fill="#fff" fill-opacity="1" d="m 62,53.5 c -1.6,0 -2.9,-1.3 -2.9,-2.9 0,-1.6 1.3,-2.9 2.9,-2.9 1.6,0 3,1.3 3,2.9 0,1.6 -1.4,2.9 -3,2.9 z M 62,49 c -0.8,0 -1.5,0.7 -1.5,1.5 0,0.8 0.7,1.5 1.5,1.5 0.8,0 1.5,-0.7 1.5,-1.5 C 63.5,49.7 62.9,49 62,49 Z" class="st0"/></g><g id="g13" fill="#fff" fill-opacity="1"><path id="path15" fill="#fff" fill-opacity="1" d="m 88.9,50.6 c 0,1.2 -1,2.2 -2.2,2.2 -1.2,0 -2.2,-1 -2.2,-2.2 0,-1.2 1,-2.2 2.2,-2.2 1.2,-0.1 2.2,0.9 2.2,2.2 l 0,0 z m 0,0" class="st0"/><path id="path17" fill="#fff" fill-opacity="1" d="m 86.7,53.5 c -1.6,0 -2.9,-1.3 -2.9,-2.9 0,-1.6 1.3,-2.9 2.9,-2.9 1.6,0 2.9,1.3 2.9,2.9 0,1.6 -1.3,2.9 -2.9,2.9 z m 0,-4.5 c -0.8,0 -1.5,0.7 -1.5,1.5 0,0.8 0.7,1.5 1.5,1.5 0.8,0 1.5,-0.7 1.5,-1.5 0,-0.8 -0.7,-1.5 -1.5,-1.5 z" class="st0"/></g><g id="g19" fill="#fff" fill-opacity="1"><path id="path21" fill="#fff" fill-opacity="1" d="m 57.6,46 c 0.2,0.1 0.4,0.2 0.6,0.2 l 5.5,0.4 c 0.7,0 1.4,-0.5 1.4,-1.2 0,-0.7 -0.5,-1.4 -1.2,-1.4 l -5.5,-0.4 c -0.7,0 -1.4,0.5 -1.4,1.2 -0.1,0.5 0.2,0.9 0.6,1.2 l 0,0 z m 0,0" class="st0"/><path id="path23" fill="#fff" fill-opacity="1" d="m 63.8,47.2 c 0,0 -0.1,0 -0.1,0 l -5.5,-0.4 c -0.3,0 -0.6,-0.1 -0.9,-0.2 l 0,0 c -0.7,-0.4 -1.1,-1.1 -1,-1.9 0.1,-1.1 1,-2 2.2,-1.9 l 5.5,0.4 c 0.5,0 1,0.3 1.4,0.7 0.4,0.4 0.5,0.9 0.5,1.5 -0.2,1 -1,1.8 -2.1,1.8 z M 58,45.4 c 0.1,0 0.2,0.1 0.3,0.1 l 5.5,0.4 c 0.3,0 0.6,-0.2 0.7,-0.6 0,-0.2 0,-0.3 -0.2,-0.5 -0.1,-0.1 -0.3,-0.2 -0.4,-0.2 l -5.5,-0.4 c -0.4,0 -0.6,0.2 -0.7,0.6 -0.1,0.2 0,0.5 0.3,0.6 z" class="st0"/></g><g id="g25" fill="#fff" fill-opacity="1"><path id="path27" fill="#fff" fill-opacity="1" d="m 84.2,45.7 5.4,1.2 c 0.2,0 0.4,0 0.6,0 0.5,-0.1 0.9,-0.5 1,-1 0.2,-0.7 -0.3,-1.4 -1,-1.6 l -5.4,-1.2 c -0.7,-0.2 -1.4,0.3 -1.6,1 -0.1,0.7 0.3,1.4 1,1.6 l 0,0 z m 0,0" class="st0"/><path id="path29" fill="#fff" fill-opacity="1" d="m 90,47.7 c -0.2,0 -0.3,0 -0.5,-0.1 L 84.1,46.4 C 83,46.1 82.3,45.1 82.6,44 82.9,42.9 83.9,42.2 85,42.5 l 5.4,1.2 c 1.1,0.3 1.8,1.3 1.5,2.4 -0.2,0.8 -0.8,1.4 -1.5,1.5 -0.2,0 -0.3,0.1 -0.4,0.1 z m -5.6,-2.7 5.4,1.2 c 0.1,0 0.2,0 0.3,0 0.2,-0.1 0.4,-0.2 0.5,-0.5 C 90.7,45.4 90.5,45 90.1,45 l -5.4,-1.2 c -0.3,-0.1 -0.7,0.1 -0.7,0.5 -0.1,0.3 0.1,0.6 0.4,0.7 l 0,0 z" class="st0"/></g><g id="g31" fill="#fff" fill-opacity="1"><path id="path33" fill="#fff" fill-opacity="1" d="m 58.7,62 c -0.6,-0.4 -1.4,-0.2 -1.8,0.4 -0.4,0.6 -0.2,1.4 0.4,1.8 3.8,2.3 8.1,3.5 12.6,3.5 l 8.2,0 c 4.4,0 8.8,-1.2 12.6,-3.5 0.6,-0.4 0.8,-1.2 0.4,-1.8 -0.4,-0.6 -1.2,-0.8 -1.8,-0.4 -3.4,2.1 -7.2,3.1 -11.2,3.1 l -8.2,0 c -4,0 -7.8,-1.1 -11.2,-3.1 l 0,0 z m 0,0" class="st0"/><path id="path35" fill="#fff" fill-opacity="1" d="m 78.1,68.5 -8.2,0 c -4.6,0 -9,-1.3 -12.9,-3.6 -0.5,-0.3 -0.8,-0.7 -0.9,-1.3 -0.1,-0.5 0,-1.1 0.2,-1.5 0.3,-0.5 0.7,-0.8 1.3,-0.9 0.5,-0.1 1.1,0 1.5,0.2 3.3,2 7,3 10.8,3 l 8.2,0 c 3.8,0 7.6,-1.1 10.8,-3 1,-0.6 2.2,-0.3 2.8,0.7 0.3,0.5 0.4,1 0.2,1.5 -0.2,0.5 -0.5,1 -0.9,1.3 -3.9,2.3 -8.3,3.6 -12.9,3.6 z M 58,62.5 c 0,0 -0.1,0 -0.1,0 -0.2,0 -0.3,0.1 -0.4,0.3 -0.1,0.1 -0.1,0.3 -0.1,0.5 0,0.2 0.1,0.3 0.3,0.4 3.7,2.2 7.9,3.4 12.2,3.4 l 8.2,0 c 4.3,0 8.5,-1.2 12.2,-3.4 0.1,-0.1 0.2,-0.2 0.3,-0.4 0,-0.2 0,-0.3 -0.1,-0.5 -0.2,-0.3 -0.6,-0.4 -0.9,-0.2 -3.5,2.1 -7.5,3.2 -11.5,3.2 l -8.2,0 c -4.1,0 -8.1,-1.1 -11.5,-3.2 l 0,0 C 58.2,62.5 58.1,62.5 58,62.5 Z" class="st0"/></g><g id="g37" fill="#fff" fill-opacity="1"><g id="g39" fill="#fff" fill-opacity="1"><path id="path41" fill="#fff" fill-opacity="1" d="m 73.9,88.1 c -18.2,0 -33,-14.8 -33,-33 0,-18.2 14.8,-33 33,-33 18.2,0 33,14.8 33,33 0,18.2 -14.8,33 -33,33 z m 0,-63.8 c -17,0 -30.8,13.8 -30.8,30.8 0,17 13.8,30.8 30.8,30.8 17,0 30.8,-13.8 30.8,-30.8 0,-17 -13.8,-30.8 -30.8,-30.8 z" class="st0"/><path id="path43" fill="#fff" fill-opacity="1" d="m 73.9,88.8 c -18.6,0 -33.7,-15.1 -33.7,-33.7 0,-18.6 15.1,-33.7 33.7,-33.7 18.6,0 33.7,15.1 33.7,33.7 0,18.6 -15.1,33.7 -33.7,33.7 z m 0,-66 c -17.8,0 -32.3,14.5 -32.3,32.3 0,17.8 14.5,32.3 32.3,32.3 17.8,0 32.3,-14.5 32.3,-32.3 0,-17.8 -14.5,-32.3 -32.3,-32.3 z m 0,63.8 c -17.4,0 -31.5,-14.1 -31.5,-31.5 0,-17.4 14.1,-31.5 31.5,-31.5 17.4,0 31.5,14.1 31.5,31.5 0,17.4 -14.1,31.5 -31.5,31.5 z M 73.9,25 C 57.3,25 43.8,38.5 43.8,55.1 43.8,71.7 57.3,85.2 73.9,85.2 90.5,85.2 104,71.7 104,55.1 104,38.5 90.5,25 73.9,25 Z" class="st0"/></g></g></g></svg>