<svg xmlns="http://www.w3.org/2000/svg" xmlns:svg="http://www.w3.org/2000/svg" xmlns:xlink="http://www.w3.org/1999/xlink" id="Camada_1" width="82" height="82" x="0" y="0" version="1.1" viewBox="0 0 82 82" xml:space="preserve"><metadata id="metadata21"/><style id="style3" type="text/css">.st0{clip-path:url(#SVGID_2_);fill:#fff}</style><g id="g5" fill="#d8b212" fill-opacity="1" transform="translate(-30.95,-8.7999999)"><g id="g7" fill="#d8b212" fill-opacity="1"><defs id="defs9"><rect id="SVGID_1_" width="42.2" height="70.4" x="51" y="14.7"/></defs><clipPath id="SVGID_2_"><use id="use13" width="100%" height="100%" x="0" y="0" overflow="visible" xlink:href="#SVGID_1_"/></clipPath><path id="path15" fill="#d8b212" fill-opacity="1" d="m 91.3,14.6 -10,0 C 70,14.6 62.7,21.4 62.7,31.9 l 0,8 -10.1,0 c -0.9,0 -1.6,0.6 -1.6,1.4 l 0,11.6 c 0,0.8 0.7,1.4 1.6,1.4 l 10.1,0 0,29.2 c 0,0.8 0.7,1.4 1.6,1.4 l 13.2,0 c 0.9,0 1.6,-0.6 1.6,-1.4 l 0,-29.1 11.8,0 c 0.9,0 1.6,-0.6 1.6,-1.4 l 0,-11.6 C 92.5,41 92.3,40.7 92,40.4 91.7,40.1 91.3,40 90.9,40 L 79,40 79,33.2 c 0,-3.3 0.9,-4.9 5.5,-4.9 l 6.8,0 c 0.9,0 1.6,-0.6 1.6,-1.4 l 0,-10.8 c -0.1,-0.8 -0.8,-1.5 -1.6,-1.5 l 0,0 z m 0,0" class="st0" clip-path="url(#SVGID_2_)"/></g></g></svg>