<svg xmlns="http://www.w3.org/2000/svg" xmlns:svg="http://www.w3.org/2000/svg" id="Camada_1" width="33" height="22" x="0" y="0" version="1.1" viewBox="0 0 33 22" xml:space="preserve"><metadata id="metadata21"/><style id="style3" type="text/css">.st0{fill:#d4ae12}</style><g id="g5" transform="translate(-25.75,-17.3)"><g id="g7"><g id="g9"><path id="path11" fill="#d4ae12" d="m 49.5,37.2 -14.5,0 c -4.3,0 -7.9,-4 -7.9,-8.9 0,-4.9 3.5,-8.9 7.9,-8.9 l 14.5,0 c 4.3,0 7.9,4 7.9,8.9 0,4.9 -3.6,8.9 -7.9,8.9 z M 35,19.9 c -4.1,0 -7.4,3.7 -7.4,8.4 0,4.7 3.3,8.4 7.4,8.4 l 14.5,0 c 4.1,0 7.4,-3.7 7.4,-8.4 0,-4.6 -3.3,-8.4 -7.4,-8.4 l -14.5,0 z" class="st0"/><path id="path13" fill="#d4ae12" d="m 49.5,37.6 -14.5,0 c -4.6,0 -8.3,-4.2 -8.3,-9.3 0,-5.1 3.7,-9.3 8.3,-9.3 l 14.5,0 c 4.6,0 8.3,4.2 8.3,9.3 0,5.1 -3.7,9.3 -8.3,9.3 z M 35,20.4 c -3.9,0 -7,3.5 -7,7.9 0,4.4 3.1,7.9 7,7.9 l 14.5,0 c 3.9,0 7,-3.5 7,-7.9 0,-4.4 -3.1,-7.9 -7,-7.9 l -14.5,0 z" class="st0"/></g></g><circle id="circle15" cx="36" cy="28.4" r="5.5" fill="#d4ae12" class="st0"/></g></svg>