<svg xmlns="http://www.w3.org/2000/svg" xmlns:xlink="http://www.w3.org/1999/xlink" width="140" height="140" version="1.1" viewBox="0 0 140 140"><title>Artboard 4 Copy 4</title><desc>Created with Sketch.</desc><g id="Page-1" fill="none" fill-rule="evenodd" stroke="none" stroke-width="1"><g id="Artboard-4-Copy-4"><g id="Group-15-Copy" transform="translate(33.000000, 28.000000)"><polygon id="Fill-1" fill="#CB78D3" points="33.893 3.164 13.106 2.84 11.52 31.623 6.189 58.383 0 72.692 56.107 84.982 65.134 65.902 71.709 24.507 73.35 1.315 73.35 1.303"/><polygon id="Fill-2" fill="#FFF" points="15.533 7.445 17.296 8.19 17.693 9.133 15.717 8.438"/><polygon id="Fill-3" fill="#000" points="10.157 5.885 12.131 6.336 14.037 6.609 16.295 4.739 15.087 12.468 13.701 9.999 11.644 9.232 9.688 8.508"/><polygon id="Fill-4" fill="#FFF" points="66.841 7.554 67.586 9.316 68.529 9.714 67.833 7.738"/><path id="Fill-5" fill="#000" d="M64.4082154,3.18311391 C64.0502161,2.16716984 65.0591233,1.11868037 65.6985964,0.688553397 C65.942247,0.525826424 67.0734194,-0.239430151 68.1342233,0.323517215 C68.8027233,0.677998134 69.1941476,1.42830142 69.1809536,2.11879155 C69.155445,3.37310865 67.7946957,4.32484153 66.577322,4.3529889 C65.8314167,4.3697014 64.7143181,4.04952509 64.4082154,3.18311391"/><polygon id="Fill-7" fill="#000" points="65.28 2.178 65.73 4.151 66.005 6.058 64.135 8.316 71.864 7.107 69.396 5.722 68.628 3.664 67.902 1.709"/><polygon id="Fill-9" fill="#FFF" points="63.018 25.891 18.907 23.66 20.755 12.308 62.855 12.468"/><polygon id="Fill-11" fill="#FFF" points="55.374 62.142 15.077 56.943 19.128 32.034 61.23 32.195"/></g></g></g></svg>