<svg xmlns="http://www.w3.org/2000/svg" xmlns:xlink="http://www.w3.org/1999/xlink" width="231" height="245" version="1.1" viewBox="0 0 231 245"><title>Artboard 8</title><desc>Created with Sketch.</desc><defs><polygon id="path-1" points="159.305 .084 0 .084 0 120.253 159.305 120.253 159.305 .084"/><polygon id="path-3" points="0 195.528 206.697 195.528 206.697 .385 0 .385"/></defs><g id="Page-1" fill="none" fill-rule="evenodd" stroke="none" stroke-width="1"><g id="Artboard-8"><g id="Page-1" transform="translate(24.000000, 49.000000)"><g id="Group-3" transform="translate(0.000000, 0.300137)"><mask id="mask-2" fill="#fff"><use xlink:href="#path-1"/></mask><path id="Fill-1" fill="#000" d="M0.00027691942,6.14276502 L0.00027691942,114.192569 C0.00027691942,117.53914 2.71270263,120.25295 6.05927381,120.25295 L153.246099,120.25295 C156.59267,120.25295 159.305096,117.53914 159.305096,114.192569 L159.305096,6.14276502 C159.305096,2.79619384 156.59267,0.0837681243 153.246099,0.0837681243 L6.05927381,0.0837681243 C2.71270263,0.0837681243 0.00027691942,2.79619384 0.00027691942,6.14276502" mask="url(#mask-2)"/></g><path id="Fill-4" fill="#000" d="M3.51189208,123.061423 L3.51189208,123.061423 C1.4959187,123.061423 0.137628951,125.125857 0.937926073,126.977063 L18.9473805,168.717128 C19.7352163,170.539257 21.5448847,171.705088 23.5303969,171.664935 L204.644005,167.965291 C206.511826,167.926523 207.396584,165.643322 206.041063,164.355647 L200.13991,158.746644 L162.18395,123.406188 C161.945799,123.184652 161.63288,123.061423 161.3075,123.061423 L3.51189208,123.061423 Z"/><mask id="mask-4" fill="#fff"><use xlink:href="#path-3"/></mask><polygon id="Fill-6" fill="#000" points="115.852 124.582 141.589 124.582 141.589 113.938 115.852 113.938" mask="url(#mask-4)"/><polygon id="Fill-8" fill="#000" points="22.382 124.582 47.734 124.582 47.734 113.938 22.382 113.938" mask="url(#mask-4)"/><path id="Fill-9" fill="#7AB7FF" d="M5.51983479,6.10492154 L5.51983479,114.831793 C5.51983479,117.991444 8.0384169,120.552948 11.1468374,120.552948 L153.675878,120.552948 C156.784298,120.552948 159.304265,117.991444 159.304265,114.831793 L159.304265,6.10492154 C159.304265,2.94527097 156.784298,0.383766338 153.675878,0.383766338 L11.1468374,0.383766338 C8.0384169,0.383766338 5.51983479,2.94527097 5.51983479,6.10492154" mask="url(#mask-4)"/><path id="Fill-10" fill="#7AB7FF" d="M3.3860322,123.064192 L161.813017,123.061423 L205.481824,163.721501 L28.0069378,167.753448 C25.1325142,167.818524 22.4920875,166.175007 21.2833343,163.565042 L3.3860322,123.064192 Z" mask="url(#mask-4)"/><polygon id="Fill-11" fill="#FFF" points="15.028 110.842 150.492 110.842 150.492 11.76 15.028 11.76" mask="url(#mask-4)"/><polygon id="Fill-12" fill="#FFF" points="58.122 143.798 63.233 148.731 63.291 150.164 58.182 145.187" mask="url(#mask-4)"/><polygon id="Fill-13" fill="#B2E1FF" points="50.848 135.612 55.957 140.45 67.118 140.45 61.009 135.612" mask="url(#mask-4)"/><polygon id="Fill-14" fill="#B2E1FF" points="15.138 127.291 20.248 132.129 31.409 132.129 25.3 127.291" mask="url(#mask-4)"/><polygon id="Fill-15" fill="#B2E1FF" points="29.999 127.291 35.11 132.129 46.271 132.129 40.162 127.291" mask="url(#mask-4)"/><polygon id="Fill-16" fill="#B2E1FF" points="59.722 127.291 64.832 132.129 75.994 132.129 69.885 127.291" mask="url(#mask-4)"/><polygon id="Fill-17" fill="#B2E1FF" points="44.86 127.291 49.971 132.129 61.132 132.129 55.023 127.291" mask="url(#mask-4)"/><polygon id="Fill-18" fill="#B2E1FF" points="20.681 135.612 25.792 140.45 52.461 140.45 46.352 135.612" mask="url(#mask-4)"/><polygon id="Fill-19" fill="#B2E1FF" points="67.405 135.032 72.515 139.87 83.677 139.87 77.568 135.032" mask="url(#mask-4)"/><polygon id="Fill-20" fill="#B2E1FF" points="82.207 135.032 87.316 139.87 98.478 139.87 92.37 135.032" mask="url(#mask-4)"/><polygon id="Fill-21" fill="#B2E1FF" points="83.676 151.774 132.533 151.51 142.825 161.156 92.573 161.156" mask="url(#mask-4)"/><polygon id="Fill-22" fill="#B2E1FF" points="148.89 127.291 154.001 132.129 165.162 132.129 159.053 127.291" mask="url(#mask-4)"/><polygon id="Fill-23" fill="#B2E1FF" points="134.029 127.291 139.14 132.129 150.301 132.129 144.192 127.291" mask="url(#mask-4)"/><polygon id="Fill-24" fill="#B2E1FF" points="119.168 127.291 124.278 132.129 135.439 132.129 129.331 127.291" mask="url(#mask-4)"/><polygon id="Fill-25" fill="#B2E1FF" points="104.306 127.291 109.417 132.129 120.578 132.129 114.469 127.291" mask="url(#mask-4)"/><polygon id="Fill-26" fill="#B2E1FF" points="89.445 127.291 94.555 132.129 105.716 132.129 99.608 127.291" mask="url(#mask-4)"/><polygon id="Fill-27" fill="#B2E1FF" points="74.583 127.291 79.694 132.129 90.855 132.129 84.746 127.291" mask="url(#mask-4)"/><polygon id="Fill-28" fill="#B2E1FF" points="97.259 135.419 102.369 140.063 113.531 140.063 107.422 135.419" mask="url(#mask-4)"/><polygon id="Fill-29" fill="#B2E1FF" points="112.311 135.419 117.421 140.063 128.583 140.063 122.474 135.419" mask="url(#mask-4)"/><polygon id="Fill-30" fill="#B2E1FF" points="127.364 135.032 132.474 139.87 143.635 139.87 137.526 135.032" mask="url(#mask-4)"/><polygon id="Fill-31" fill="#B2E1FF" points="143.42 135.419 148.53 140.063 159.692 140.063 153.583 135.419" mask="url(#mask-4)"/><polygon id="Fill-32" fill="#B2E1FF" points="157.72 135.032 162.829 139.87 173.99 139.87 167.882 135.032" mask="url(#mask-4)"/><polygon id="Fill-33" fill="#B2E1FF" points="150.383 142.966 155.494 147.804 182.161 147.804 176.052 142.966" mask="url(#mask-4)"/><polygon id="Fill-34" fill="#B2E1FF" points="135.392 143.546 140.501 148.384 151.662 148.384 145.554 143.546" mask="url(#mask-4)"/><polygon id="Fill-35" fill="#B2E1FF" points="74.007 143.74 80.279 148.578 137.256 148.578 131.147 143.74" mask="url(#mask-4)"/><polygon id="Fill-36" fill="#B2E1FF" points="58.122 143.74 63.233 148.578 74.394 148.578 68.285 143.74" mask="url(#mask-4)"/><polygon id="Fill-37" fill="#B2E1FF" points="42.569 143.74 47.679 148.578 58.84 148.578 52.732 143.74" mask="url(#mask-4)"/><polygon id="Fill-38" fill="#B2E1FF" points="27.015 143.74 32.124 148.578 43.285 148.578 37.176 143.74" mask="url(#mask-4)"/><polygon id="Fill-39" fill="#FFF" points="15.138 127.264 20.248 132.197 20.306 133.63 15.197 128.651" mask="url(#mask-4)"/><polygon id="Fill-40" fill="#FFF" points="20.249 132.322 31.09 132.322 31.09 133.46 20.148 133.692" mask="url(#mask-4)"/><polygon id="Fill-41" fill="#FFF" points="29.999 127.264 35.11 132.197 35.168 133.63 30.058 128.651" mask="url(#mask-4)"/><polygon id="Fill-42" fill="#FFF" points="35.11 132.322 45.798 132.322 45.798 133.46 34.932 133.692" mask="url(#mask-4)"/><polygon id="Fill-43" fill="#FFF" points="148.89 127.264 154.001 132.197 154.059 133.63 148.95 128.651" mask="url(#mask-4)"/><polygon id="Fill-44" fill="#FFF" points="154.002 132.322 165.199 132.322 165.199 133.46 154.079 133.692" mask="url(#mask-4)"/><polygon id="Fill-45" fill="#FFF" points="134.029 127.264 139.14 132.197 139.198 133.63 134.089 128.651" mask="url(#mask-4)"/><polygon id="Fill-46" fill="#FFF" points="139.14 132.322 150.299 132.322 150.299 133.46 139.197 133.692" mask="url(#mask-4)"/><polygon id="Fill-47" fill="#FFF" points="119.168 127.264 124.278 132.197 124.336 133.63 119.227 128.651" mask="url(#mask-4)"/><polygon id="Fill-48" fill="#FFF" points="124.279 132.322 135.591 132.322 135.591 133.46 124.413 133.692" mask="url(#mask-4)"/><polygon id="Fill-49" fill="#FFF" points="104.306 127.264 109.417 132.197 109.475 133.63 104.366 128.651" mask="url(#mask-4)"/><polygon id="Fill-50" fill="#FFF" points="109.417 132.322 120.109 132.322 120.109 133.46 109.241 133.692" mask="url(#mask-4)"/><polygon id="Fill-51" fill="#FFF" points="89.445 127.264 94.555 132.197 94.613 133.63 89.504 128.651" mask="url(#mask-4)"/><polygon id="Fill-52" fill="#FFF" points="94.556 132.322 105.208 132.322 105.208 133.46 94.359 133.692" mask="url(#mask-4)"/><polygon id="Fill-53" fill="#FFF" points="74.583 127.264 79.694 132.197 79.752 133.63 74.643 128.651" mask="url(#mask-4)"/><polygon id="Fill-54" fill="#FFF" points="79.694 132.322 90.501 132.322 90.501 133.409 79.575 133.692" mask="url(#mask-4)"/><polygon id="Fill-55" fill="#FFF" points="59.722 127.264 64.832 132.197 64.891 133.63 59.781 128.651" mask="url(#mask-4)"/><polygon id="Fill-56" fill="#FFF" points="64.833 132.322 75.6 132.322 75.6 133.46 64.694 133.692" mask="url(#mask-4)"/><polygon id="Fill-57" fill="#FFF" points="44.86 127.264 49.971 132.197 50.029 133.63 44.92 128.651" mask="url(#mask-4)"/><polygon id="Fill-58" fill="#FFF" points="49.971 132.322 61.133 132.322 61.015 133.523 50.03 133.724" mask="url(#mask-4)"/><polygon id="Fill-59" fill="#FFF" points="20.681 135.52 25.792 140.453 25.85 141.887 20.741 136.908" mask="url(#mask-4)"/><polygon id="Fill-60" fill="#FFF" points="25.793 140.643 52.377 140.643 52.377 141.717 25.811 141.981" mask="url(#mask-4)"/><polygon id="Fill-61" fill="#FFF" points="50.848 135.52 55.957 140.453 56.017 141.887 50.906 136.908" mask="url(#mask-4)"/><polygon id="Fill-62" fill="#FFF" points="55.958 140.643 66.89 140.643 66.89 141.717 55.904 141.981" mask="url(#mask-4)"/><polygon id="Fill-63" fill="#FFF" points="67.405 135.017 72.515 139.952 72.574 141.385 67.464 136.406" mask="url(#mask-4)"/><polygon id="Fill-64" fill="#FFF" points="72.516 140.063 83.339 140.063 83.339 141.215 72.407 141.44" mask="url(#mask-4)"/><polygon id="Fill-65" fill="#FFF" points="82.207 135.017 87.316 139.952 87.375 141.385 82.265 136.406" mask="url(#mask-4)"/><polygon id="Fill-66" fill="#FFF" points="87.316 140.063 98.242 140.063 98.242 141.215 87.257 141.44" mask="url(#mask-4)"/><polygon id="Fill-67" fill="#FFF" points="97.259 135.269 102.369 140.202 102.428 141.635 97.318 136.656" mask="url(#mask-4)"/><polygon id="Fill-68" fill="#FFF" points="102.112 140.257 113.143 140.257 113.143 141.465 102.112 141.553" mask="url(#mask-4)"/><polygon id="Fill-69" fill="#FFF" points="112.311 135.269 117.421 140.202 117.48 141.635 112.37 136.656" mask="url(#mask-4)"/><polygon id="Fill-70" fill="#FFF" points="117.422 140.257 128.237 140.257 128.237 141.465 117.307 141.662" mask="url(#mask-4)"/><polygon id="Fill-71" fill="#FFF" points="127.364 135.017 132.474 139.952 132.533 141.385 127.423 136.406" mask="url(#mask-4)"/><polygon id="Fill-72" fill="#FFF" points="132.474 140.063 143.331 140.063 143.331 141.215 132.381 141.44" mask="url(#mask-4)"/><polygon id="Fill-73" fill="#FFF" points="143.42 135.269 148.53 140.202 148.588 141.635 143.479 136.656" mask="url(#mask-4)"/><polygon id="Fill-74" fill="#FFF" points="148.531 140.257 159.393 140.257 159.393 141.465 148.441 141.662" mask="url(#mask-4)"/><polygon id="Fill-75" fill="#FFF" points="157.72 135.017 162.829 139.952 162.889 141.385 157.778 136.406" mask="url(#mask-4)"/><polygon id="Fill-76" fill="#FFF" points="162.83 140.063 173.713 140.063 173.713 141.215 162.749 141.44" mask="url(#mask-4)"/><polygon id="Fill-77" fill="#FFF" points="150.383 143.046 155.494 147.979 155.552 149.413 150.441 144.434" mask="url(#mask-4)"/><polygon id="Fill-78" fill="#FFF" points="155.494 147.998 182.034 147.998 182.034 149.242 155.489 149.42" mask="url(#mask-4)"/><polygon id="Fill-79" fill="#FFF" points="135.392 143.548 140.501 148.481 140.561 149.914 135.45 144.935" mask="url(#mask-4)"/><polygon id="Fill-80" fill="#FFF" points="140.502 148.578 151.458 148.578 151.458 149.745 140.459 149.961" mask="url(#mask-4)"/><polygon id="Fill-81" fill="#FFF" points="92.525 161.35 142.557 161.35 142.557 162.538 92.475 162.746" mask="url(#mask-4)"/><polygon id="Fill-82" fill="#FFF" points="83.728 151.793 92.598 161.195 92.609 162.668 83.728 153.084" mask="url(#mask-4)"/><polygon id="Fill-83" fill="#FFF" points="73.859 143.885 80.204 148.65 80.042 150.114 73.859 145.305" mask="url(#mask-4)"/><polygon id="Fill-84" fill="#FFF" points="80.292 148.771 136.946 148.771 136.946 149.655 79.999 150.175" mask="url(#mask-4)"/><polygon id="Fill-85" fill="#FFF" points="63.233 148.771 74.051 148.771 74.051 149.995 63.121 150.185" mask="url(#mask-4)"/><polygon id="Fill-86" fill="#FFF" points="42.569 143.798 47.679 148.731 47.737 150.164 42.627 145.187" mask="url(#mask-4)"/><polygon id="Fill-87" fill="#FFF" points="47.68 148.771 58.57 148.771 58.57 149.995 47.602 150.185" mask="url(#mask-4)"/><polygon id="Fill-88" fill="#FFF" points="27.015 143.798 32.124 148.731 32.184 150.164 27.073 145.187" mask="url(#mask-4)"/><polygon id="Fill-89" fill="#FFF" points="32.125 148.771 42.895 148.771 42.895 149.995 31.988 150.185" mask="url(#mask-4)"/><polyline id="Fill-90" fill="#B2E1FF" points="46.186 110.842 46.186 101.359 121.657 102.133 121.657 110.842" mask="url(#mask-4)"/><path id="Fill-91" fill="#FF645B" d="M61.0090865,103.229562 C59.8224868,103.269715 58.556965,104.236164 58.4628124,105.593069 C58.3658906,107.023358 59.6175664,108.162881 60.9177031,108.320725 C62.1666097,108.473031 63.5041305,107.725349 63.8267416,106.594133 C64.2684281,105.051692 62.7259869,103.171409 61.0090865,103.229562" mask="url(#mask-4)"/><path id="Fill-92" fill="#49B172" d="M69.9102458,103.229562 C68.7250307,103.269715 67.4581244,104.236164 67.3653564,105.593069 C67.26705,107.023358 68.5201104,108.162881 69.820247,108.320725 C71.067769,108.473031 72.4052898,107.725349 72.7292855,106.594133 C73.1695874,105.051692 71.6285308,103.171409 69.9102458,103.229562" mask="url(#mask-4)"/><path id="Fill-93" fill="#FEC70D" d="M79.2292766,103.229562 C78.0440615,103.269715 76.7771551,104.236164 76.6830025,105.593069 C76.5860807,107.023358 77.8391411,108.162881 79.1392778,108.320725 C80.3867998,108.473031 81.7243206,107.725349 82.0469317,106.594133 C82.4886182,105.051692 80.946177,103.171409 79.2292766,103.229562" mask="url(#mask-4)"/><path id="Fill-94" fill="#CB78D3" d="M88.6821979,103.61628 C87.4955982,103.656433 86.2300764,104.622882 86.1359238,105.979787 C86.039002,107.410076 87.2906778,108.549599 88.5908145,108.708828 C89.8397211,108.859749 91.1772419,108.112067 91.499853,106.980851 C91.9415395,105.439794 90.3990983,103.558127 88.6821979,103.61628" mask="url(#mask-4)"/><path id="Fill-95" fill="#FA589A" d="M97.5833573,103.61628 C96.3981421,103.656433 95.1312358,104.622882 95.0384678,105.979787 C94.9401614,107.410076 96.1932218,108.549599 97.4933584,108.708828 C98.7408804,108.859749 100.078401,108.112067 100.402397,106.980851 C100.842699,105.439794 99.3016422,103.558127 97.5833573,103.61628" mask="url(#mask-4)"/><path id="Fill-96" fill="#7AB7FF" d="M105.517652,103.61628 C104.332437,103.656433 103.065531,104.622882 102.971378,105.979787 C102.874457,107.410076 104.127517,108.549599 105.427654,108.708828 C106.675176,108.859749 108.012696,108.112067 108.335308,106.980851 C108.776994,105.439794 107.234553,103.558127 105.517652,103.61628" mask="url(#mask-4)"/><path id="Fill-97" fill="#000" d="M79.392936,3.56833966 C78.2077209,3.60710838 76.9408145,4.57355715 76.8466619,5.9318469 C76.7497401,7.36075111 78.0028005,8.50165912 79.3029372,8.65950318 C80.5504591,8.81180886 81.8879799,8.06412643 82.2105911,6.93152601 C82.6522775,5.39046944 81.1098364,3.50880199 79.392936,3.56833966" mask="url(#mask-4)"/><polygon id="Fill-98" fill="#FA589A" points="15.028 15.776 150.492 15.776 150.492 11.762 15.028 11.762" mask="url(#mask-4)"/><path id="Fill-99" fill="#D69C85" d="M165.527337,195.528327 C161.725233,195.000796 153.93549,195.508943 150.534919,194.024655 C147.819724,192.840824 142.613639,189.888863 140.330439,188.001657 C136.47849,184.824007 126.505237,173.576925 126.505237,173.576925 C126.505237,173.576925 125.2231,171.988792 125.904322,170.363275 C126.591082,168.730835 129.109664,169.504825 129.995806,170.022664 C133.278686,171.941716 139.588295,178.475629 141.672113,179.767459 C142.065339,180.011148 143.36686,179.030853 143.130094,178.634858 C141.712267,176.260274 128.245675,155.36255 128.245675,155.36255 L123.100513,147.797112 C123.100513,147.797112 120.537623,144.255312 122.700364,142.696256 C124.842336,141.15243 128.145984,146.073288 128.145984,146.073288 C128.145984,146.073288 132.730385,152.662586 134.234058,154.875172 C137.917086,160.282024 139.595218,161.922771 141.245657,163.110755 C141.647191,163.401521 143.253323,163.085833 142.581794,161.643083 C142.018263,160.428791 140.420438,158.436356 139.650602,157.404831 C137.23171,154.167643 127.248765,139.540759 127.248765,139.540759 C127.248765,139.540759 126.053858,137.102484 128.078139,135.841116 C129.648272,134.860821 131.58117,137.141252 131.58117,137.141252 C131.58117,137.141252 145.733137,156.751301 146.7342,157.762057 C147.018043,158.047284 148.062029,157.411754 148.160335,157.021297 C148.536946,155.541163 136.772024,141.043047 134.232673,135.692964 C133.959908,135.119741 133.928062,134.157446 135.080047,133.416686 C136.76787,132.328393 138.069392,134.168522 138.069392,134.168522 C138.069392,134.168522 152.357049,154.108105 153.287498,154.612098 C153.521495,154.739481 154.510098,154.584407 154.530867,154.318564 C154.751018,151.586754 149.605855,143.761011 147.618958,140.346595 C146.964043,139.218148 145.582216,136.828333 145.910365,135.727579 C146.115285,135.036665 147.480498,134.354058 148.170028,134.568671 C150.030926,135.146048 151.943055,139.265224 152.891504,140.966894 C154.204102,143.324863 157.309753,147.608806 158.771888,149.8297 C159.756336,151.32645 170.563116,166.616555 172.558321,170.580657 C173.875073,173.197545 174.966135,179.089006 176.383963,181.65328 C179.406538,187.123823 182.308654,190.384549 186.524752,195.000796" mask="url(#mask-4)"/><path id="Fill-100" fill="#D69C85" d="M58.1601395,192.914623 C59.7067345,187.236391 61.2062531,184.957344 60.4156482,181.314469 C60.0099612,179.443878 59.5848899,179.909103 58.5796724,176.882374 C57.3972265,173.328113 57.2352286,170.434305 57.055231,167.246962 C56.9070791,164.628689 56.7921576,162.583639 57.168768,159.810291 C57.5799933,156.800177 60.3519567,144.29865 63.0505364,142.783901 C63.835603,142.343599 65.2188155,141.56684 66.210187,142.131756 C67.0395607,142.605288 67.179405,143.778042 67.2832498,144.777721 C67.4618628,146.48216 67.1226365,147.491531 66.4732605,150.281494 C66.21711,151.382249 65.725578,153.574066 65.3725058,155.648192 C64.9862032,157.92447 64.2468283,159.441989 64.8214361,159.847675 C65.0734328,160.026289 65.4597354,159.922444 65.7574238,159.799215 C66.7501799,157.32217 67.1974047,155.246659 67.4217095,153.820524 C67.9617023,150.395031 71.5395012,139.296101 72.7925616,138.634263 C73.1373263,138.452881 75.3152975,137.354896 76.9034304,138.490265 C77.6691126,139.037181 77.9626472,139.862401 78.0761841,140.291626 C78.0997223,141.48238 78.0747995,143.190972 77.8311105,145.229099 C77.4503462,148.419211 73.7562412,159.655216 74.4499243,160.103826 C74.7005364,160.265824 75.0743776,160.094134 75.1948376,160.03875 C76.2914385,159.533372 77.2523489,153.612835 78.1343372,147.868141 C78.6867915,144.254343 78.9180192,139.397176 79.643548,138.354575 C80.5726127,137.014285 82.138592,136.708289 82.4667415,136.65152 C82.7907372,136.596136 84.5450218,136.294294 85.5363933,137.327204 C85.853466,137.653969 85.9850028,138.005656 86.0376174,138.156577 C87.4415989,142.153909 86.936221,146.724464 86.936221,146.724464 C86.3325366,152.167315 84.1947187,160.614742 85.0379383,161.226734 C85.1805518,161.329194 85.5876234,161.531346 85.8590044,161.376271 C86.1331546,161.219811 88.3374332,147.035999 88.2972799,145.224946 C88.2751263,144.309727 88.0480524,143.175742 87.5939046,140.910541 C87.1536027,138.717339 86.9237596,137.602739 86.458535,136.630751 C85.7482366,135.146463 85.2594739,135.009388 84.7748649,133.519562 C84.4813303,132.61542 84.149027,131.540972 84.5810213,130.395911 C84.6364052,130.247759 85.2428587,128.706702 86.3920743,128.572396 C86.630225,128.544704 87.2048328,128.54332 88.8580417,130.150837 C89.795414,131.061902 90.5084815,131.755585 91.3060094,133.029414 C92.0093847,134.149553 92.3735338,135.074464 93.2458299,137.746737 C94.2690472,140.882849 94.7799635,142.451598 95.1468817,143.933116 C95.4238012,145.058794 95.9859476,147.480454 96.3860961,150.641489 C96.5536324,151.954087 96.8720897,154.829896 96.8610129,158.593231 C96.8499362,162.251336 96.8430132,164.218849 96.1396379,166.813583 C95.7464123,168.261872 95.3725711,168.980478 94.1139723,171.745518 C91.513699,177.454212 91.4333923,177.996974 90.2620232,180.480941 C86.3713053,188.719294 84.3968699,188.777447 82.2438214,194.0943" mask="url(#mask-4)"/><polygon id="Fill-101" fill="#FF645B" points="84.603 194.209 58.747 186.52 53.694 195.528 84.395 195.001" mask="url(#mask-4)"/></g></g></g></svg>